<svg width="30" height="30" viewBox="0 0 30 30" fill="none" xmlns="http://www.w3.org/2000/svg">
<path d="M6.26965 9.22705H22.7843C23.1189 9.22706 23.4498 9.29719 23.7557 9.43292C24.0616 9.56865 24.3356 9.76696 24.5601 10.0151C24.7847 10.2632 24.9547 10.5556 25.0593 10.8735C25.1639 11.1913 25.2008 11.5276 25.1675 11.8605L24.4489 19.046C24.3898 19.637 24.1132 20.185 23.6729 20.5836C23.2325 20.9821 22.6597 21.2028 22.0657 21.2029H10.6288C10.0749 21.2031 9.53806 21.0113 9.10965 20.6602C8.68124 20.3091 8.38776 19.8203 8.27919 19.2771L6.26965 9.22705Z" stroke="white" stroke-width="2.21092" stroke-linejoin="round"/>
<path d="M6.26968 9.22685L5.29964 5.34309C5.23477 5.08412 5.08522 4.85425 4.87475 4.69C4.66428 4.52575 4.40496 4.43653 4.13799 4.43652H2.67694" stroke="white" stroke-width="2.21092" stroke-linecap="round" stroke-linejoin="round"/>
<path d="M9.86243 25.9929H12.2569" stroke="white" stroke-width="2.21092" stroke-linecap="round" stroke-linejoin="round"/>
<path d="M19.4431 25.9929H21.8375" stroke="white" stroke-width="2.21092" stroke-linecap="round" stroke-linejoin="round"/>
</svg>
