<svg width="22" height="20" viewBox="0 0 22 20" fill="none" xmlns="http://www.w3.org/2000/svg">
<g filter="url(#filter0_d_4107_27)">
<path fill-rule="evenodd" clip-rule="evenodd" d="M11.2144 3.43855L11.2422 3.89756L10.7783 3.84136C9.08952 3.6259 7.61416 2.89522 6.36151 1.66805L5.7491 1.05915L5.59135 1.5088C5.25731 2.51114 5.47073 3.56969 6.16665 4.28164C6.53781 4.67508 6.4543 4.73129 5.81405 4.49709C5.59135 4.42215 5.3965 4.36595 5.37794 4.39405C5.31299 4.45962 5.53568 5.31208 5.71198 5.64932C5.95323 6.1177 6.44502 6.57672 6.9832 6.84838L7.43786 7.06384L6.89969 7.07321C6.38006 7.07321 6.36151 7.08258 6.41718 7.2793C6.60276 7.8882 7.3358 8.53457 8.15234 8.8156L8.72764 9.01232L8.22658 9.31208C7.48426 9.743 6.61204 9.98656 5.73982 10.0053C5.32226 10.0147 4.97894 10.0521 4.97894 10.0802C4.97894 10.1739 6.11097 10.6985 6.76978 10.9046C8.7462 11.5135 11.0938 11.2512 12.8568 10.2114C14.1094 9.47134 15.3621 8.00061 15.9467 6.57672C16.2621 5.81794 16.5776 4.43152 16.5776 3.76641C16.5776 3.3355 16.6055 3.27929 17.1251 2.76407C17.4313 2.46431 17.7189 2.13644 17.7746 2.04276C17.8674 1.86477 17.8581 1.86477 17.3849 2.02402C16.5962 2.30506 16.4848 2.26758 16.8746 1.84604C17.1622 1.54627 17.5055 1.00295 17.5055 0.843696C17.5055 0.815593 17.3663 0.862432 17.2086 0.946741C17.0416 1.04042 16.6704 1.18093 16.3921 1.26524L15.891 1.42449L15.4363 1.11536C15.1858 0.946741 14.8332 0.759387 14.6476 0.703181C14.1744 0.572034 13.4506 0.590769 13.0238 0.740652C11.8639 1.1622 11.1309 2.24885 11.2144 3.43855Z" fill="white"/>
</g>
<defs>
<filter id="filter0_d_4107_27" x="0.978943" y="0.615479" width="20.8419" height="18.6123" filterUnits="userSpaceOnUse" color-interpolation-filters="sRGB">
<feFlood flood-opacity="0" result="BackgroundImageFix"/>
<feColorMatrix in="SourceAlpha" type="matrix" values="0 0 0 0 0 0 0 0 0 0 0 0 0 0 0 0 0 0 127 0" result="hardAlpha"/>
<feOffset dy="4"/>
<feGaussianBlur stdDeviation="2"/>
<feComposite in2="hardAlpha" operator="out"/>
<feColorMatrix type="matrix" values="0 0 0 0 0 0 0 0 0 0 0 0 0 0 0 0 0 0 0.25 0"/>
<feBlend mode="normal" in2="BackgroundImageFix" result="effect1_dropShadow_4107_27"/>
<feBlend mode="normal" in="SourceGraphic" in2="effect1_dropShadow_4107_27" result="shape"/>
</filter>
</defs>
</svg>
