<svg width="21" height="16" viewBox="0 0 21 16" fill="none" xmlns="http://www.w3.org/2000/svg">
<g filter="url(#filter0_d_2_550)">
<path d="M16.16 1.82482C16.1604 1.97921 16.1318 2.13175 16.0762 2.27124C16.0206 2.41073 15.9394 2.53363 15.8386 2.63089L10.6277 7.62233C10.4723 7.77433 10.2774 7.85742 10.0762 7.85742C9.87502 7.85742 9.6801 7.77433 9.5247 7.62233L4.31374 2.45521C4.13638 2.2798 4.02485 2.02773 4.00367 1.75447C3.9825 1.48121 4.05342 1.20913 4.20084 0.998083C4.34826 0.78704 4.56009 0.654324 4.78974 0.629129C5.0194 0.603934 5.24805 0.688325 5.42541 0.863737L10.0805 5.48314L14.7356 1.01875C14.8631 0.892381 15.0184 0.812107 15.183 0.787429C15.3476 0.762752 15.5147 0.794702 15.6646 0.8795C15.8144 0.964299 15.9407 1.0984 16.0285 1.26592C16.1163 1.43345 16.1619 1.6274 16.16 1.82482Z" fill="#FF56F6"/>
</g>
<defs>
<filter id="filter0_d_2_550" x="0" y="0.624756" width="20.16" height="15.2327" filterUnits="userSpaceOnUse" color-interpolation-filters="sRGB">
<feFlood flood-opacity="0" result="BackgroundImageFix"/>
<feColorMatrix in="SourceAlpha" type="matrix" values="0 0 0 0 0 0 0 0 0 0 0 0 0 0 0 0 0 0 127 0" result="hardAlpha"/>
<feOffset dy="4"/>
<feGaussianBlur stdDeviation="2"/>
<feComposite in2="hardAlpha" operator="out"/>
<feColorMatrix type="matrix" values="0 0 0 0 0 0 0 0 0 0 0 0 0 0 0 0 0 0 0.25 0"/>
<feBlend mode="normal" in2="BackgroundImageFix" result="effect1_dropShadow_2_550"/>
<feBlend mode="normal" in="SourceGraphic" in2="effect1_dropShadow_2_550" result="shape"/>
</filter>
</defs>
</svg>
